<svg xmlns="http://www.w3.org/2000/svg" xmlns:xlink="http://www.w3.org/1999/xlink" width="40" height="44" viewBox="0 0 40 44">
  <defs>
    <clipPath id="clip-iPhone_X_XS_11_Pro_1">
      <rect width="40" height="44"/>
    </clipPath>
  </defs>
  <g id="iPhone_X_XS_11_Pro_1" data-name="iPhone X, XS, 11 Pro – 1" clip-path="url(#clip-iPhone_X_XS_11_Pro_1)">
    <path id="آیکون_خانه" data-name="آیکون خانه" d="M15.054,8.493l-9.9,8.153v8.8a.859.859,0,0,0,.859.859l6.017-.016a.859.859,0,0,0,.855-.859V20.292a.859.859,0,0,1,.859-.859H17.18a.859.859,0,0,1,.859.859v5.135a.859.859,0,0,0,.859.862l6.015.017a.859.859,0,0,0,.859-.859V16.641l-9.9-8.147A.655.655,0,0,0,15.054,8.493Zm15.637,5.542-4.489-3.7V2.9a.644.644,0,0,0-.644-.644H22.551a.644.644,0,0,0-.644.644V6.8L17.1,2.841a2.577,2.577,0,0,0-3.275,0L.233,14.035a.644.644,0,0,0-.086.907l1.369,1.664a.644.644,0,0,0,.908.088l12.63-10.4a.655.655,0,0,1,.822,0l12.63,10.4a.644.644,0,0,0,.907-.086l1.369-1.664a.644.644,0,0,0-.091-.909Z" transform="translate(4.662 6.512)" fill="#fff"/>
  </g>
</svg>
