<?xml version="1.0" encoding="UTF-8"?>
<svg xmlns="http://www.w3.org/2000/svg" xmlns:xlink="http://www.w3.org/1999/xlink" width="100pt" height="100pt" viewBox="0 0 100 100" version="1.1">
<g id="surface1">
<path style=" stroke:none;fill-rule:nonzero;fill:rgb(79.607843%,88.627451%,100%);fill-opacity:1;" d="M 50.003906 94.402344 L 69.816406 89.398438 C 81.121094 80.007812 88.324219 65.847656 88.324219 50 C 88.324219 25.558594 71.195312 5.117188 48.285156 0.0273438 C 21.464844 0.933594 0 22.960938 0 50 C 0 63.890625 5.664062 76.453125 14.808594 85.515625 Z M 50.003906 94.402344 "/>
<path style=" stroke:none;fill-rule:nonzero;fill:rgb(74.509804%,84.705882%,98.431373%);fill-opacity:1;" d="M 87.289062 50 C 87.289062 66.390625 79.402344 80.9375 67.214844 90.054688 L 85.191406 85.515625 C 94.335938 76.453125 100 63.890625 100 50 C 100 22.386719 77.613281 0 50 0 C 47.847656 0 45.726562 0.136719 43.644531 0.398438 C 68.257812 3.523438 87.289062 24.539062 87.289062 50 Z M 87.289062 50 "/>
<path style=" stroke:none;fill-rule:nonzero;fill:rgb(21.176471%,36.862745%,49.019608%);fill-opacity:1;" d="M 62.425781 18.9375 C 62.425781 16.382812 60.355469 14.3125 57.800781 14.3125 L 41.867188 14.3125 C 35.992188 14.3125 31.226562 19.078125 31.226562 24.953125 L 31.226562 36.769531 L 68.765625 36.769531 L 68.765625 25.121094 C 68.765625 22.566406 66.695312 20.496094 64.144531 20.496094 L 63.988281 20.496094 C 63.125 20.496094 62.425781 19.796875 62.425781 18.9375 Z M 62.425781 18.9375 "/>
<path style=" stroke:none;fill-rule:nonzero;fill:rgb(16.862745%,30.196078%,40%);fill-opacity:1;" d="M 64.144531 20.496094 L 63.988281 20.496094 C 63.125 20.496094 62.425781 19.796875 62.425781 18.9375 C 62.425781 16.382812 60.355469 14.3125 57.800781 14.3125 L 56.054688 14.3125 L 56.054688 36.769531 L 68.765625 36.769531 L 68.765625 25.121094 C 68.765625 22.566406 66.695312 20.496094 64.144531 20.496094 Z M 64.144531 20.496094 "/>
<path style=" stroke:none;fill-rule:nonzero;fill:rgb(29.019608%,50.196078%,66.666667%);fill-opacity:1;" d="M 83.015625 72.726562 C 81.792969 71.519531 80.28125 70.585938 78.566406 70.039062 L 64.914062 65.71875 L 50.003906 65.195312 L 35.085938 65.71875 L 21.433594 70.039062 C 16.816406 71.503906 13.679688 75.789062 13.679688 80.632812 L 13.679688 84.363281 C 22.425781 93.605469 34.664062 99.511719 48.285156 99.972656 C 63.542969 96.582031 76.238281 86.382812 83.015625 72.726562 Z M 83.015625 72.726562 "/>
<path style=" stroke:none;fill-rule:nonzero;fill:rgb(25.098039%,43.921569%,57.647059%);fill-opacity:1;" d="M 86.320312 84.363281 L 86.320312 80.632812 C 86.320312 77.207031 84.75 74.0625 82.199219 71.996094 C 74.953125 86.769531 60.632812 97.441406 43.65625 99.597656 C 45.703125 99.859375 47.792969 99.996094 49.910156 100 C 51.945312 99.996094 53.957031 99.878906 55.929688 99.652344 C 67.851562 98.242188 78.488281 92.640625 86.320312 84.363281 Z M 86.320312 84.363281 "/>
<path style=" stroke:none;fill-rule:nonzero;fill:rgb(89.411765%,96.470588%,100%);fill-opacity:1;" d="M 51.132812 99.25 C 54.15625 93.246094 62.035156 76.191406 59.789062 65.539062 L 50.003906 61.730469 L 40.207031 65.539062 C 37.894531 76.519531 46.335938 94.304688 49.128906 99.773438 C 49.804688 99.613281 50.46875 99.4375 51.132812 99.25 Z M 51.132812 99.25 "/>
<path style=" stroke:none;fill-rule:nonzero;fill:rgb(88.627451%,50.196078%,52.54902%);fill-opacity:1;" d="M 56.289062 94.488281 L 52.320312 78.882812 L 47.679688 78.882812 L 43.722656 94.449219 L 48.613281 99.894531 C 49.859375 99.613281 51.082031 99.28125 52.289062 98.910156 Z M 56.289062 94.488281 "/>
<path style=" stroke:none;fill-rule:nonzero;fill:rgb(86.666667%,38.823529%,43.137255%);fill-opacity:1;" d="M 48.691406 99.980469 C 49.097656 99.992188 49.503906 100 49.910156 100 C 50.382812 100 50.851562 99.992188 51.320312 99.976562 L 53.84375 97.191406 C 51.859375 97.890625 49.816406 98.464844 47.726562 98.90625 Z M 48.691406 99.980469 "/>
<path style=" stroke:none;fill-rule:nonzero;fill:rgb(100%,86.666667%,80.784314%);fill-opacity:1;" d="M 58.355469 64.097656 L 58.355469 55.296875 L 41.640625 55.296875 L 41.640625 64.097656 C 41.640625 68.714844 49.996094 73.753906 49.996094 73.753906 C 49.996094 73.753906 58.355469 68.714844 58.355469 64.097656 Z M 58.355469 64.097656 "/>
<path style=" stroke:none;fill-rule:nonzero;fill:rgb(100%,86.666667%,80.784314%);fill-opacity:1;" d="M 68.765625 35.21875 L 65.570312 35.21875 C 63.796875 35.21875 62.355469 33.777344 62.355469 32 L 62.355469 30.242188 C 62.355469 27.925781 60.089844 26.289062 57.894531 27.015625 C 52.765625 28.710938 47.234375 28.710938 42.105469 27.015625 L 42.101562 27.015625 C 39.902344 26.289062 37.640625 27.925781 37.640625 30.238281 L 37.640625 32 C 37.640625 33.777344 36.199219 35.21875 34.421875 35.21875 L 31.226562 35.21875 L 31.226562 40.480469 C 31.226562 41.824219 32.316406 42.914062 33.660156 42.914062 C 34.085938 42.914062 34.429688 43.246094 34.457031 43.671875 C 34.96875 51.808594 41.730469 58.25 49.996094 58.25 C 58.265625 58.25 65.023438 51.808594 65.539062 43.671875 C 65.5625 43.246094 65.910156 42.914062 66.332031 42.914062 C 67.675781 42.914062 68.769531 41.824219 68.769531 40.480469 L 68.769531 35.21875 Z M 68.765625 35.21875 "/>
<path style=" stroke:none;fill-rule:nonzero;fill:rgb(100%,79.607843%,74.509804%);fill-opacity:1;" d="M 65.570312 35.21875 C 63.796875 35.21875 62.355469 33.777344 62.355469 32 L 62.355469 30.242188 C 62.355469 27.925781 60.089844 26.289062 57.890625 27.015625 C 57.285156 27.214844 56.671875 27.390625 56.054688 27.542969 L 56.054688 44.921875 C 55.96875 50.574219 52.871094 55.496094 48.296875 58.15625 C 48.855469 58.214844 49.421875 58.25 49.996094 58.25 C 58.265625 58.25 65.023438 51.808594 65.535156 43.667969 C 65.5625 43.246094 65.910156 42.914062 66.332031 42.914062 C 67.675781 42.914062 68.765625 41.824219 68.765625 40.480469 L 68.765625 35.21875 Z M 65.570312 35.21875 "/>
<path style=" stroke:none;fill-rule:nonzero;fill:rgb(95.686275%,98.431373%,100%);fill-opacity:1;" d="M 41.640625 61.730469 L 35.085938 67.054688 L 41.957031 75.554688 C 42.792969 76.367188 44.109375 76.417969 45.007812 75.671875 L 50.175781 71.351562 Z M 41.640625 61.730469 "/>
<path style=" stroke:none;fill-rule:nonzero;fill:rgb(95.686275%,98.431373%,100%);fill-opacity:1;" d="M 58.355469 61.730469 L 50.175781 71.351562 L 55.035156 75.507812 C 55.921875 76.269531 57.246094 76.230469 58.089844 75.417969 L 64.914062 67.054688 Z M 58.355469 61.730469 "/>
<path style=" stroke:none;fill-rule:nonzero;fill:rgb(21.176471%,36.862745%,49.019608%);fill-opacity:1;" d="M 41.640625 61.730469 L 32.019531 66.457031 C 31.285156 66.816406 30.992188 67.707031 31.367188 68.433594 L 33.25 72.085938 C 33.738281 73.035156 33.558594 74.1875 32.804688 74.941406 C 32.417969 75.328125 31.996094 75.746094 31.632812 76.109375 C 30.980469 76.761719 30.746094 77.722656 31.035156 78.597656 C 33.308594 85.535156 44.261719 96.144531 48.40625 99.980469 C 48.683594 99.988281 48.964844 99.992188 49.242188 99.996094 C 46.238281 94.152344 35.585938 71.9375 41.640625 61.730469 Z M 41.640625 61.730469 "/>
<path style=" stroke:none;fill-rule:nonzero;fill:rgb(21.176471%,36.862745%,49.019608%);fill-opacity:1;" d="M 67.191406 74.941406 C 66.4375 74.1875 66.257812 73.035156 66.746094 72.085938 L 68.628906 68.433594 C 69.003906 67.707031 68.710938 66.816406 67.976562 66.457031 L 58.355469 61.730469 C 64.40625 71.9375 53.765625 94.136719 50.753906 99.992188 C 51.039062 99.988281 51.320312 99.980469 51.601562 99.972656 C 55.753906 96.125 66.6875 85.53125 68.960938 78.597656 C 69.25 77.722656 69.015625 76.761719 68.363281 76.109375 C 68 75.746094 67.578125 75.328125 67.191406 74.941406 Z M 67.191406 74.941406 "/>
<path style=" stroke:none;fill-rule:nonzero;fill:rgb(86.666667%,38.823529%,43.137255%);fill-opacity:1;" d="M 50.175781 71.351562 L 45.085938 75.605469 L 47.679688 78.882812 L 52.320312 78.882812 L 54.914062 75.410156 Z M 50.175781 71.351562 "/>
</g>
</svg>
