<svg xmlns="http://www.w3.org/2000/svg" xmlns:xlink="http://www.w3.org/1999/xlink" width="30" height="29" viewBox="0 0 30 29">
  <defs>
    <clipPath id="clip-iPhone_X_XS_11_Pro_1">
      <rect width="30" height="29"/>
    </clipPath>
  </defs>
  <g id="iPhone_X_XS_11_Pro_1" data-name="iPhone X, XS, 11 Pro – 1" clip-path="url(#clip-iPhone_X_XS_11_Pro_1)">
    <path id="آیکون_کاربری" data-name="آیکون کاربری" d="M20.034,15.311a6,6,0,0,0,0-1.747l.847-.611a.333.333,0,0,0,.108-.349A6.653,6.653,0,0,0,19.9,10.25a.206.206,0,0,0-.3-.057l-.847.611a3.759,3.759,0,0,0-1.211-.874V8.708a.292.292,0,0,0-.187-.291,3.989,3.989,0,0,0-2.172,0A.292.292,0,0,0,15,8.708V9.93a3.759,3.759,0,0,0-1.211.874l-.847-.611a.207.207,0,0,0-.3.057A6.653,6.653,0,0,0,11.558,12.6a.339.339,0,0,0,.108.349l.847.611a6,6,0,0,0,0,1.747l-.847.611a.333.333,0,0,0-.108.349,6.687,6.687,0,0,0,1.089,2.354.206.206,0,0,0,.3.057l.847-.611A3.759,3.759,0,0,0,15,18.945v1.222a.292.292,0,0,0,.187.291,3.988,3.988,0,0,0,2.172,0,.292.292,0,0,0,.187-.291V18.945a3.759,3.759,0,0,0,1.211-.874l.847.611a.207.207,0,0,0,.3-.057,6.653,6.653,0,0,0,1.089-2.354.339.339,0,0,0-.108-.349l-.847-.611Zm-3.757,1.116a1.826,1.826,0,0,1-1.592-1.989,1.828,1.828,0,0,1,1.592-1.989,1.828,1.828,0,0,1,1.592,1.989A1.826,1.826,0,0,1,16.277,16.427ZM7.351,10.5c2.32,0,4.2-2.35,4.2-5.25S9.671,0,7.351,0s-4.2,2.35-4.2,5.25S5.031,10.5,7.351,10.5Zm6.6,9.29c-.075-.049-.151-.107-.223-.16l-.259.189a1.119,1.119,0,0,1-.643.217,1.2,1.2,0,0,1-.948-.517,8.089,8.089,0,0,1-1.319-2.855,1.8,1.8,0,0,1,.587-1.874l.259-.189q0-.16,0-.32l-.259-.189a1.8,1.8,0,0,1-.587-1.874c.03-.119.072-.238.105-.357a3.76,3.76,0,0,0-.374-.049H9.743a4.689,4.689,0,0,1-4.785,0H4.41C1.976,11.813,0,14.282,0,17.325v1.706A1.806,1.806,0,0,0,1.575,21H13.126a1.368,1.368,0,0,0,.893-.349,1.962,1.962,0,0,1-.066-.484Z" transform="translate(5 4)" fill="#605a5a"/>
  </g>
</svg>
