<svg xmlns="http://www.w3.org/2000/svg" xmlns:xlink="http://www.w3.org/1999/xlink" width="125" height="117" viewBox="0 0 125 117">
  <defs>
    <clipPath id="clip-iPhone_X_XS_11_Pro_1">
      <rect width="125" height="117"/>
    </clipPath>
  </defs>
  <g id="iPhone_X_XS_11_Pro_1" data-name="iPhone X, XS, 11 Pro – 1" clip-path="url(#clip-iPhone_X_XS_11_Pro_1)">
    <path id="کاربر-سایدبار" d="M52.917.563a52.917,52.917,0,1,0,52.917,52.917A52.908,52.908,0,0,0,52.917.563Zm0,20.484A18.777,18.777,0,1,1,34.14,39.823,18.777,18.777,0,0,1,52.917,21.046Zm0,73.4A40.888,40.888,0,0,1,21.657,79.895a23.79,23.79,0,0,1,21.017-12.76,5.221,5.221,0,0,1,1.515.235,28.251,28.251,0,0,0,8.727,1.472,28.144,28.144,0,0,0,8.727-1.472,5.221,5.221,0,0,1,1.515-.235,23.79,23.79,0,0,1,21.017,12.76A40.888,40.888,0,0,1,52.917,94.447Z" transform="translate(10 5.438)" fill="#2c7bcb"/>
  </g>
</svg>
